<?xml version="1.0" encoding="UTF-8"?>
<svg id="Layer_1" xmlns="http://www.w3.org/2000/svg" version="1.1" viewBox="0 0 1430.9 29">
  <!-- Generator: Adobe Illustrator 29.8.2, SVG Export Plug-In . SVG Version: 2.1.1 Build 3)  -->
  <defs>
    <style>
      .st0 {
        fill: none;
      }

      .st1 {
        fill: #fff;
      }
    </style>
  </defs>
  <path class="st1" d="M63.8,22v-13h-4.5v-2.4h11.8v2.4h-4.5v13h-2.8ZM73,22V6.6h2.8v6h6.9v-6h2.8v15.4h-2.8v-7h-6.9v7h-2.8ZM88.4,22V6.6h9.9v2.4h-7.1v3.7h6v2.4h-6v4.5h7.1v2.4h-9.9ZM105.8,22V6.6h3.3l4.4,9.9,4.3-9.9h3.3v15.4h-2.8v-10.4l-3.8,8.4h-2.2l-3.8-8.4v10.4h-2.8,0ZM131.4,22.3c-1,0-2-.2-3-.5-.9-.4-1.8-.9-2.5-1.6s-1.3-1.5-1.7-2.5-.6-2.1-.6-3.3.2-2.3.6-3.3,1-1.8,1.7-2.5,1.6-1.2,2.5-1.6c1-.4,1.9-.6,3-.6s2,.2,3,.6,1.8.9,2.5,1.6,1.3,1.5,1.7,2.5.6,2.1.6,3.3-.2,2.3-.6,3.3-1,1.8-1.7,2.5-1.6,1.2-2.5,1.6-1.9.5-3,.5ZM131.4,19.7c.8,0,1.6-.2,2.4-.6.8-.4,1.4-1,1.9-1.8s.7-1.8.7-3-.2-2.3-.7-3.1-1.1-1.4-1.9-1.8c-.8-.4-1.6-.6-2.4-.6s-1.6.2-2.4.6c-.8.4-1.4,1-1.9,1.8s-.7,1.8-.7,3.1.2,2.2.7,3,1.1,1.4,1.9,1.8,1.5.6,2.4.6ZM146.8,22.3c-1.1,0-2-.2-2.9-.5-.9-.4-1.6-.9-2.1-1.6s-.8-1.6-.8-2.7h3c0,.7.3,1.3.8,1.8s1.2.7,2,.7,1.3-.2,1.8-.5c.4-.4.7-.8.7-1.4s0-.6-.2-.8c0-.2-.3-.5-.5-.7-.3-.2-.6-.4-1.1-.6-.5-.2-1.1-.4-1.9-.7-1-.3-1.8-.7-2.4-1.2-.6-.4-1.1-.9-1.3-1.5-.3-.6-.4-1.2-.4-1.8,0-1,.2-1.8.7-2.4.5-.7,1.1-1.2,1.9-1.5.8-.3,1.7-.5,2.6-.5s1.8.2,2.6.5,1.4.8,1.9,1.5.7,1.5.7,2.4h-3c0-.6-.2-1-.7-1.5-.4-.4-1-.6-1.7-.6s-1.1.2-1.5.5-.6.8-.6,1.4.2.8.5,1.1.8.6,1.3.8c.6.2,1.2.5,1.9.7.4.1.8.3,1.3.5s.9.5,1.4.8c.4.3.8.8,1.1,1.3s.4,1.2.4,1.9-.2,1.7-.7,2.4c-.5.7-1.1,1.2-1.9,1.6-.8.4-1.7.5-2.8.5h-.1ZM157.7,22v-13h-4.5v-2.4h11.8v2.4h-4.5v13h-2.8ZM172,22V6.6h5.3c1.1,0,2,.2,2.8.5s1.4.8,1.8,1.5c.4.7.7,1.5.7,2.4s-.3,2-.9,2.6c-.6.7-1.4,1.1-2.4,1.4l4.3,7h-3.3l-3.8-6.5h-1.7v6.5h-2.8ZM174.8,13.1h2.5c.7,0,1.2,0,1.5-.3.4-.2.6-.4.7-.7.1-.3.2-.7.2-1.1s0-.7-.2-1.1c-.1-.3-.4-.6-.7-.7-.4-.2-.9-.3-1.5-.3h-2.5v4.1h0ZM185.5,22V6.6h9.9v2.4h-7.1v3.7h6.1v2.4h-6.1v4.5h7.1v2.4h-9.9ZM196.9,22l5.6-15.4h3.2l5.6,15.4h-3l-1.2-3.5h-6.1l-1.2,3.5h-2.9ZM201.8,16.2h4.5l-2.2-6.4-2.2,6.4h-.1ZM213.1,22V6.6h2.8v13h6.6v2.4h-9.5,0ZM224.9,22V6.6h2.8v15.4h-2.8ZM235.8,22.3c-1.1,0-2-.2-2.9-.5-.9-.4-1.6-.9-2.1-1.6s-.8-1.6-.8-2.7h3c0,.7.3,1.3.8,1.8s1.2.7,2,.7,1.3-.2,1.8-.5c.4-.4.7-.8.7-1.4s0-.6-.2-.8c0-.2-.3-.5-.5-.7-.3-.2-.6-.4-1.1-.6-.5-.2-1.1-.4-1.9-.7-1-.3-1.8-.7-2.4-1.2-.6-.4-1.1-.9-1.3-1.5-.3-.6-.4-1.2-.4-1.8,0-1,.2-1.8.7-2.4.5-.7,1.1-1.2,1.9-1.5.8-.3,1.7-.5,2.6-.5s1.8.2,2.6.5,1.4.8,1.9,1.5.7,1.5.7,2.4h-3c0-.6-.2-1-.7-1.5-.4-.4-1-.6-1.7-.6s-1.1.2-1.5.5-.6.8-.6,1.4.2.8.5,1.1.8.6,1.3.8c.6.2,1.2.5,1.9.7.4.1.8.3,1.3.5s.9.5,1.4.8c.4.3.8.8,1.1,1.3s.4,1.2.4,1.9-.2,1.7-.7,2.4c-.5.7-1.1,1.2-1.9,1.6-.8.4-1.7.5-2.8.5h-.1ZM246.6,22v-13h-4.5v-2.4h11.8v2.4h-4.5v13h-2.8ZM255.8,22V6.6h2.8v15.4h-2.8ZM268.5,22.3c-1.6,0-2.9-.3-4-1s-2-1.6-2.6-2.8c-.6-1.2-.9-2.6-.9-4.1s.3-2.9.9-4.1c.6-1.2,1.4-2.1,2.5-2.8s2.5-1.1,4.1-1.1,3.4.5,4.5,1.4c1.2.9,1.9,2.2,2.2,3.8h-3.1c-.2-.8-.6-1.5-1.2-2s-1.4-.7-2.5-.7-1.8.2-2.4.7c-.7.4-1.2,1.1-1.6,1.9s-.6,1.8-.6,2.9.2,2.1.6,2.9.9,1.4,1.6,1.9c.7.4,1.5.6,2.4.6s1.8-.2,2.5-.7c.6-.5,1-1.1,1.2-1.9h3.1c-.3,1.6-1,2.8-2.2,3.7-1.2.9-2.7,1.3-4.5,1.3h0ZM281.5,22l5.6-15.4h3.2l5.6,15.4h-3l-1.2-3.5h-6.1l-1.2,3.5h-2.9ZM286.5,16.2h4.5l-2.2-6.4-2.2,6.4h0ZM297.7,22V6.6h2.8v15.4h-2.8ZM308.4,22V6.6h9.9v2.4h-7.1v3.7h6.1v2.4h-6.1v4.5h7.1v2.4h-9.9ZM325.3,22l-5.6-15.4h3l4.4,12.5,4.4-12.5h3l-5.6,15.4h-3.6ZM336,22V6.6h9.9v2.4h-7.1v3.7h6v2.4h-6v4.5h7.1v2.4h-9.9ZM348.4,22V6.6h5.3c1.1,0,2,.2,2.8.5s1.4.8,1.8,1.5c.4.7.7,1.5.7,2.4s-.3,2-.9,2.6-1.4,1.1-2.4,1.4l4.3,7h-3.3l-3.8-6.5h-1.7v6.5h-2.8ZM351.2,13.1h2.5c.7,0,1.2,0,1.5-.3.4-.2.6-.4.7-.7s.2-.7.2-1.1,0-.7-.2-1.1c-.1-.3-.4-.6-.7-.7-.4-.2-.9-.3-1.5-.3h-2.5v4.1h0Z"/>
  <path class="st1" d="M407.3,3c2,5.3,6.2,9.5,11.5,11.5-5.3,2-9.5,6.2-11.5,11.5-2-5.3-6.2-9.5-11.5-11.5,5.3-2,9.5-6.2,11.5-11.5Z"/>
  <path class="st1" d="M12,3c2,5.3,6.2,9.5,11.5,11.5-5.3,2-9.5,6.2-11.5,11.5-2-5.3-6.2-9.5-11.5-11.5,5.3-2,9.5-6.2,11.5-11.5Z"/>
  <path class="st1" d="M455.6,22v-2.4h4.1v-9.9l-4,.9v-2.2l5.2-1.9h1.5v13h3.6v2.4h-10.4ZM473,22.3c-1.4,0-2.5-.4-3.4-1.1s-1.5-1.7-1.8-2.9c-.4-1.2-.6-2.6-.6-4s.2-2.8.6-4,1-2.2,1.8-2.9c.9-.7,2-1.1,3.4-1.1s2.5.3,3.4,1,1.5,1.6,1.8,2.8c.4,1.2.6,2.6.6,4.1s-.2,2.9-.6,4.1-1,2.1-1.8,2.8c-.8.7-2,1-3.4,1v.2ZM473,19.8c1,0,1.8-.5,2.2-1.5.5-1,.7-2.3.7-4s-.2-3-.7-4-1.2-1.5-2.2-1.5-1.8.5-2.2,1.5c-.5,1-.7,2.3-.7,4s.2,3,.7,4,1.2,1.5,2.2,1.5ZM485.8,22.3c-1.4,0-2.5-.4-3.4-1.1-.8-.7-1.5-1.7-1.8-2.9-.4-1.2-.6-2.6-.6-4s.2-2.8.6-4,1-2.2,1.8-2.9c.9-.7,2-1.1,3.4-1.1s2.5.3,3.4,1,1.5,1.6,1.8,2.8c.4,1.2.6,2.6.6,4.1s-.2,2.9-.6,4.1-1,2.1-1.8,2.8c-.8.7-2,1-3.4,1v.2ZM485.8,19.8c1,0,1.8-.5,2.2-1.5.5-1,.7-2.3.7-4s-.2-3-.7-4-1.2-1.5-2.2-1.5-1.8.5-2.2,1.5c-.5,1-.7,2.3-.7,4s.2,3,.7,4,1.2,1.5,2.2,1.5ZM495.9,22l8.7-15.4h2.8l-8.7,15.4h-2.8ZM496.8,14.2c-.7,0-1.3-.2-1.9-.5s-1-.8-1.4-1.4c-.3-.6-.5-1.3-.5-2.1s.2-1.5.5-2.1c.3-.6.8-1,1.4-1.4.6-.3,1.2-.5,1.9-.5s1.3.2,1.9.5,1,.8,1.4,1.3c.2.3.3.6.4,1,0,.3.1.7.1,1.1,0,.8-.2,1.5-.5,2.1s-.8,1-1.4,1.3-1.2.5-1.9.5v.2ZM496.8,12.2c.4,0,.8-.2,1.1-.5.3-.3.5-.8.5-1.5s-.2-1.1-.5-1.5c-.3-.3-.7-.5-1.1-.5s-.8.2-1.1.5c-.3.3-.4.8-.4,1.5s.1,1.1.4,1.5c.3.3.7.5,1.1.5ZM506.6,22.3c-.7,0-1.3-.2-1.9-.5s-1-.8-1.4-1.4c-.3-.6-.5-1.3-.5-2.1s.2-1.5.5-2.1.8-1,1.4-1.4c.6-.3,1.2-.5,1.9-.5s1.3.2,1.9.5,1,.7,1.4,1.3c.2.3.3.6.4,1,0,.3.1.7.1,1.1,0,.8-.2,1.5-.5,2.1s-.8,1-1.3,1.3c-.6.3-1.2.5-1.9.5v.2ZM506.6,20.3c.4,0,.8-.2,1.1-.5.3-.3.5-.8.5-1.5s-.2-1.1-.5-1.5c-.3-.3-.7-.5-1.1-.5s-.8.2-1.1.5c-.3.3-.4.8-.4,1.5s.1,1.1.4,1.5c.3.3.7.5,1.1.5ZM525.1,22.3c-1,0-2-.2-3-.5-.9-.4-1.8-.9-2.5-1.6s-1.3-1.5-1.7-2.5-.6-2.1-.6-3.3.2-2.3.6-3.3c.4-1,1-1.8,1.7-2.5s1.6-1.2,2.5-1.6c1-.4,1.9-.6,3-.6s2,.2,3,.6,1.8.9,2.5,1.6,1.3,1.5,1.7,2.5.6,2.1.6,3.3-.2,2.3-.6,3.3c-.4,1-1,1.8-1.7,2.5s-1.6,1.2-2.5,1.6-1.9.5-3,.5ZM525.1,19.7c.8,0,1.6-.2,2.4-.6.8-.4,1.4-1,1.9-1.8s.7-1.8.7-3-.2-2.3-.7-3.1-1.1-1.4-1.9-1.8c-.8-.4-1.6-.6-2.4-.6s-1.6.2-2.4.6c-.8.4-1.4,1-1.9,1.8s-.7,1.8-.7,3.1.2,2.2.7,3,1.1,1.4,1.9,1.8c.8.4,1.5.6,2.4.6ZM538.8,22l-5.3-15.4h2.9l4.2,12.7,1.6-5.1-2.7-7.6h2.8l1.7,5.4,1.7-5.4h2.9l-2.7,7.6,1.6,5.1,4.2-12.7h2.9l-5.3,15.4h-3.3l-1.9-5.6-1.9,5.6h-3.4ZM556.4,22V6.6h2.8l7.2,10.8V6.6h2.8v15.4h-2.8l-7.2-10.7v10.7h-2.8ZM572,22V6.6h9.9v2.4h-7.1v3.7h6.1v2.4h-6.1v4.5h7.1v2.4h-9.9ZM584.4,22V6.6h5.3c1.8,0,3.3.3,4.5,1,1.2.6,2,1.5,2.6,2.7s.8,2.5.8,4-.3,3-.9,4.2c-.6,1.1-1.5,2-2.7,2.6s-2.6.9-4.3.9h-5.3,0ZM587.2,19.6h2.3c1.3,0,2.3-.2,3.1-.6.7-.4,1.3-1,1.6-1.8s.5-1.7.5-2.8c0-1.8-.4-3.2-1.3-4-.8-.9-2.1-1.3-3.9-1.3h-2.3v10.6h0ZM611.9,22.3c-1.6,0-2.9-.3-4-1s-2-1.6-2.6-2.8c-.6-1.2-.9-2.6-.9-4.1s.3-2.9.9-4.1c.6-1.2,1.4-2.1,2.5-2.8s2.5-1.1,4.1-1.1,3.4.5,4.5,1.4c1.2.9,1.9,2.2,2.2,3.8h-3.1c-.2-.8-.6-1.5-1.2-2-.6-.5-1.4-.7-2.5-.7s-1.8.2-2.4.7c-.7.4-1.2,1.1-1.6,1.9s-.5,1.8-.5,2.9.2,2.1.5,2.9c.4.8.9,1.4,1.6,1.9.7.4,1.5.6,2.4.6s1.8-.2,2.5-.7c.6-.5,1-1.1,1.2-1.9h3.1c-.3,1.6-1,2.8-2.2,3.7-1.2.9-2.7,1.3-4.5,1.3h0ZM628.3,22.3c-1,0-2-.2-3-.5-.9-.4-1.8-.9-2.5-1.6s-1.3-1.5-1.7-2.5-.6-2.1-.6-3.3.2-2.3.6-3.3c.4-1,1-1.8,1.7-2.5s1.6-1.2,2.5-1.6c1-.4,1.9-.6,3-.6s2,.2,3,.6,1.8.9,2.5,1.6,1.3,1.5,1.7,2.5.6,2.1.6,3.3-.2,2.3-.6,3.3c-.4,1-1,1.8-1.7,2.5s-1.6,1.2-2.5,1.6-1.9.5-3,.5ZM628.3,19.7c.8,0,1.6-.2,2.4-.6.8-.4,1.4-1,1.9-1.8s.7-1.8.7-3-.2-2.3-.7-3.1-1.1-1.4-1.9-1.8c-.8-.4-1.6-.6-2.4-.6s-1.6.2-2.4.6c-.8.4-1.4,1-1.9,1.8s-.7,1.8-.7,3.1.2,2.2.7,3,1.1,1.4,1.9,1.8c.8.4,1.5.6,2.4.6ZM638.5,22V6.6h2.8l7.2,10.8V6.6h2.8v15.4h-2.8l-7.2-10.7v10.7h-2.8ZM657.8,22v-13h-4.5v-2.4h11.8v2.4h-4.5v13h-2.8ZM667,22V6.6h9.9v2.4h-7.1v3.7h6v2.4h-6v4.5h7.1v2.4h-9.9ZM679.3,22V6.6h2.8l7.2,10.8V6.6h2.8v15.4h-2.8l-7.2-10.7v10.7h-2.8ZM698.6,22v-13h-4.5v-2.4h11.8v2.4h-4.5v13h-2.8Z"/>
  <path class="st1" d="M753.3,3c2,5.3,6.2,9.5,11.5,11.5-5.3,2-9.5,6.2-11.5,11.5-2-5.3-6.2-9.5-11.5-11.5,5.3-2,9.5-6.2,11.5-11.5Z"/>
  <path class="st1" d="M805.7,22l-5.6-15.4h3l4.4,12.5,4.4-12.5h3l-5.6,15.4h-3.6ZM816.4,22V6.6h9.9v2.4h-7.1v3.7h6v2.4h-6v4.5h7.1v2.4h-9.9ZM828.8,22V6.6h5.3c1.1,0,2,.2,2.8.5s1.4.8,1.8,1.5c.4.7.7,1.5.7,2.4s-.3,2-.9,2.6c-.6.7-1.4,1.1-2.4,1.4l4.3,7h-3.3l-3.8-6.5h-1.7v6.5h-2.8,0ZM831.6,13.1h2.5c.7,0,1.2,0,1.5-.3.4-.2.6-.4.7-.7,0-.3.2-.7.2-1.1s0-.7-.2-1.1c0-.3-.4-.6-.7-.7-.4-.2-.9-.3-1.5-.3h-2.5v4.1h0ZM842.3,22V6.6h2.8v15.4h-2.8ZM848,22V6.6h9.7v2.4h-6.9v3.8h6v2.4h-6v6.8h-2.8ZM859.7,22V6.6h2.8v15.4h-2.8ZM865.3,22V6.6h9.9v2.4h-7.1v3.7h6.1v2.4h-6.1v4.5h7.1v2.4h-9.9ZM877.7,22V6.6h5.3c1.8,0,3.3.3,4.5,1,1.2.6,2,1.5,2.6,2.7s.8,2.5.8,4-.3,3-.9,4.2c-.6,1.1-1.5,2-2.7,2.6s-2.6.9-4.3.9h-5.3,0ZM880.5,19.6h2.3c1.3,0,2.3-.2,3.1-.6.7-.4,1.3-1,1.6-1.8s.5-1.7.5-2.8c0-1.8-.4-3.2-1.3-4-.8-.9-2.1-1.3-3.9-1.3h-2.3v10.6h0ZM898.2,22V6.6h2.8v15.4h-2.8ZM903.8,22V6.6h5.3c1.8,0,3.3.3,4.5,1,1.2.6,2,1.5,2.6,2.7s.8,2.5.8,4-.3,3-.9,4.2c-.6,1.1-1.5,2-2.7,2.6s-2.6.9-4.3.9h-5.3,0ZM906.6,19.6h2.3c1.3,0,2.3-.2,3.1-.6.7-.4,1.3-1,1.6-1.8s.5-1.7.5-2.8c0-1.8-.4-3.2-1.3-4-.8-.9-2.1-1.3-3.9-1.3h-2.3v10.6h0ZM919.3,22V6.6h9.9v2.4h-7.1v3.7h6v2.4h-6v4.5h7.1v2.4h-9.9ZM931.6,22V6.6h2.8l7.2,10.8V6.6h2.8v15.4h-2.8l-7.2-10.7v10.7h-2.8ZM950.9,22v-13h-4.5v-2.4h11.8v2.4h-4.5v13h-2.8ZM960.1,22V6.6h2.8v15.4h-2.8ZM969.3,22v-13h-4.5v-2.4h11.8v2.4h-4.5v13h-2.8ZM982.5,22v-6.2l-5.2-9.2h3.2l3.4,6.4,3.4-6.4h3.1l-5.1,9.2v6.2h-2.8Z"/>
  <path class="st1" d="M1037.3,3c2,5.3,6.2,9.5,11.5,11.5-5.3,2-9.5,6.2-11.5,11.5-2-5.3-6.2-9.5-11.5-11.5,5.3-2,9.5-6.2,11.5-11.5Z"/>
  <line class="st0" x1="1463.9" y1="9" x2="1463.9" y2="22"/>
  <g>
    <path class="st1" d="M1089.2,21.9v-13h-4.5v-2.4h11.8v2.4h-4.5v13h-2.8Z"/>
    <path class="st1" d="M1098.3,21.9V6.5h5.3c1.1,0,2,.2,2.8.5.8.3,1.4.8,1.8,1.5.4.7.7,1.5.7,2.4s-.3,2-.9,2.6c-.6.7-1.4,1.1-2.4,1.4l4.3,6.9h-3.3l-3.8-6.5h-1.7v6.5h-2.8ZM1101.1,13h2.5c.7,0,1.2,0,1.5-.3s.6-.4.7-.7c.1-.3.2-.7.2-1.1s0-.7-.2-1.1c-.1-.3-.4-.5-.7-.7s-.9-.3-1.5-.3h-2.5v4.1Z"/>
    <path class="st1" d="M1117.5,22.1c-1.4,0-2.5-.3-3.4-.8-.9-.6-1.5-1.3-2-2.2-.4-.9-.6-2-.6-3V6.5h2.8v9.5c0,1.2.3,2.1.9,2.7.6.6,1.4.9,2.4.9s1.8-.3,2.4-.9.9-1.5.9-2.7V6.5h2.8v9.5c0,1.2-.2,2.1-.5,2.9s-.9,1.4-1.5,1.9c-.6.5-1.3.8-2,1-.7.2-1.4.3-2.1.3Z"/>
    <path class="st1" d="M1131.6,22.1c-1.1,0-2-.2-2.9-.5s-1.6-.9-2.1-1.6c-.5-.7-.8-1.6-.8-2.7h3c0,.7.3,1.3.8,1.8.5.5,1.2.7,2,.7s1.3-.2,1.8-.5.7-.8.7-1.4,0-.6-.1-.8c0-.2-.3-.5-.5-.7-.3-.2-.6-.4-1.1-.6-.5-.2-1.1-.4-1.9-.7-1-.3-1.8-.7-2.4-1.2-.6-.4-1.1-.9-1.3-1.5-.3-.5-.4-1.1-.4-1.8,0-1,.2-1.8.7-2.4.5-.6,1.1-1.1,1.9-1.5.8-.3,1.6-.5,2.6-.5s1.8.2,2.6.5c.8.3,1.4.8,1.9,1.5.5.7.7,1.5.7,2.4h-3c0-.6-.2-1-.6-1.4-.4-.4-1-.6-1.7-.6s-1.1.2-1.5.5c-.4.3-.6.8-.6,1.4s.2.8.5,1.1c.3.3.8.6,1.3.8s1.2.5,1.9.7c.4.1.8.3,1.3.5.5.2.9.5,1.4.8s.8.8,1.1,1.3.4,1.2.4,1.9-.2,1.7-.7,2.4-1.1,1.2-1.9,1.6c-.8.4-1.7.5-2.8.5Z"/>
    <path class="st1" d="M1142.4,21.9v-13h-4.5v-2.4h11.8v2.4h-4.5v13h-2.8Z"/>
    <path class="st1" d="M1151.6,21.9V6.5h9.8v2.4h-7v3.7h6v2.4h-6v4.5h7v2.4h-9.8Z"/>
    <path class="st1" d="M1163.9,21.9V6.5h5.2c1.8,0,3.3.3,4.5,1,1.2.6,2,1.5,2.6,2.7s.8,2.5.8,4-.3,3-.9,4.2c-.6,1.1-1.5,2-2.7,2.6-1.2.6-2.6.9-4.3.9h-5.2ZM1166.7,19.4h2.3c1.3,0,2.3-.2,3.1-.6s1.3-1,1.6-1.8.5-1.7.5-2.8c0-1.8-.4-3.2-1.3-4-.8-.8-2.1-1.3-3.9-1.3h-2.3v10.5Z"/>
    <path class="st1" d="M1184.3,21.9V6.5h5.8c1.6,0,2.8.4,3.6,1.1.8.7,1.3,1.6,1.3,2.8s-.2,1.5-.6,2.1c-.4.5-.9.9-1.5,1.2.5.2,1,.5,1.4.9.4.4.8.8,1,1.3.3.5.4,1.1.4,1.7s-.2,1.5-.6,2.2-1,1.2-1.7,1.6-1.7.6-2.7.6h-6.4ZM1187.1,12.6h2.8c.8,0,1.4-.2,1.7-.5.4-.3.5-.8.5-1.4s-.2-1.1-.5-1.4c-.4-.3-1-.5-1.8-.5h-2.7v3.7ZM1187.1,19.5h3.3c.8,0,1.4-.2,1.9-.6.4-.4.6-.9.6-1.6s-.2-1.3-.6-1.6-1-.6-1.9-.6h-3.3v4.4Z"/>
    <path class="st1" d="M1201.3,21.9v-6.2l-5.2-9.2h3.2l3.4,6.4,3.4-6.4h3.1l-5.1,9.2v6.2h-2.8Z"/>
    <path class="st1" d="M1216.2,21.9v-2.4h4.1v-9.8l-4,.9v-2.1l5.2-1.9h1.5v13h3.6v2.4h-10.4Z"/>
    <path class="st1" d="M1233.6,22.1c-1.4,0-2.5-.4-3.4-1.1-.8-.7-1.5-1.7-1.8-2.8s-.6-2.5-.6-4,.2-2.8.6-4c.4-1.2,1-2.1,1.8-2.8.8-.7,2-1.1,3.4-1.1s2.5.3,3.4,1c.8.7,1.5,1.6,1.8,2.8.4,1.2.6,2.6.6,4.1s-.2,2.9-.6,4.1c-.4,1.2-1,2.1-1.8,2.8-.8.7-2,1-3.4,1ZM1233.6,19.6c1,0,1.7-.5,2.2-1.5s.7-2.3.7-4-.2-3-.7-4c-.5-1-1.2-1.5-2.2-1.5s-1.8.5-2.2,1.5c-.5,1-.7,2.3-.7,4s.2,3,.7,4c.5,1,1.2,1.5,2.2,1.5Z"/>
    <path class="st1" d="M1246.3,22.1c-1.4,0-2.5-.4-3.4-1.1-.8-.7-1.5-1.7-1.8-2.8s-.6-2.5-.6-4,.2-2.8.6-4c.4-1.2,1-2.1,1.8-2.8.8-.7,2-1.1,3.4-1.1s2.5.3,3.4,1c.8.7,1.5,1.6,1.8,2.8.4,1.2.6,2.6.6,4.1s-.2,2.9-.6,4.1c-.4,1.2-1,2.1-1.8,2.8-.8.7-2,1-3.4,1ZM1246.3,19.6c1,0,1.7-.5,2.2-1.5s.7-2.3.7-4-.2-3-.7-4c-.5-1-1.2-1.5-2.2-1.5s-1.8.5-2.2,1.5c-.5,1-.7,2.3-.7,4s.2,3,.7,4c.5,1,1.2,1.5,2.2,1.5Z"/>
    <path class="st1" d="M1265.7,6.5l-5.4,5.9,5.9,9.4h-3.3l-4.5-7.4-1.5,1.7v5.7h-2.8V6.5h2.8v5.9l5.4-5.9h3.4Z"/>
    <path class="st1" d="M1271.8,19.5v-4h-4.1v-2.3h4.1v-4h2.4v4h4.1v2.3h-4.1v4h-2.4Z"/>
    <path class="st1" d="M1293,22.1c-1.6,0-2.9-.3-4-1-1.1-.7-2-1.6-2.5-2.8-.6-1.2-.9-2.5-.9-4.1s.3-2.9.9-4.1c.6-1.2,1.4-2.1,2.5-2.8s2.5-1,4.1-1,3.3.5,4.5,1.4c1.2.9,1.9,2.2,2.2,3.8h-3.1c-.2-.8-.6-1.5-1.2-2-.6-.5-1.4-.7-2.5-.7s-1.7.2-2.4.7c-.7.4-1.2,1.1-1.6,1.9-.4.8-.5,1.8-.5,2.9s.2,2.1.5,2.9.9,1.4,1.6,1.9c.7.4,1.5.6,2.4.6s1.8-.2,2.5-.7c.6-.4,1-1.1,1.2-1.9h3.1c-.3,1.6-1,2.8-2.2,3.7-1.2.9-2.7,1.3-4.5,1.3Z"/>
    <path class="st1" d="M1302,21.9V6.5h5.3c1.1,0,2,.2,2.8.5.8.3,1.4.8,1.8,1.5.4.7.7,1.5.7,2.4s-.3,2-.9,2.6c-.6.7-1.4,1.1-2.4,1.4l4.3,6.9h-3.3l-3.8-6.5h-1.7v6.5h-2.8ZM1304.8,13h2.5c.7,0,1.2,0,1.5-.3s.6-.4.7-.7c.1-.3.2-.7.2-1.1s0-.7-.2-1.1c-.1-.3-.4-.5-.7-.7s-.9-.3-1.5-.3h-2.5v4.1Z"/>
    <path class="st1" d="M1315.5,21.9V6.5h9.8v2.4h-7v3.7h6v2.4h-6v4.5h7v2.4h-9.8Z"/>
    <path class="st1" d="M1326.8,21.9l5.6-15.3h3.2l5.6,15.3h-3l-1.2-3.5h-6l-1.2,3.5h-2.9ZM1331.7,16.1h4.4l-2.2-6.4-2.2,6.4Z"/>
    <path class="st1" d="M1345,21.9v-13h-4.5v-2.4h11.8v2.4h-4.5v13h-2.8Z"/>
    <path class="st1" d="M1361,22.1c-1,0-2-.2-2.9-.5s-1.8-.9-2.5-1.6c-.7-.7-1.3-1.5-1.7-2.5-.4-1-.6-2.1-.6-3.3s.2-2.3.6-3.3c.4-1,1-1.8,1.7-2.5.7-.7,1.6-1.2,2.5-1.6s1.9-.5,2.9-.5,2,.2,3,.5,1.8.9,2.5,1.6c.7.7,1.3,1.5,1.7,2.5.4,1,.6,2.1.6,3.3s-.2,2.3-.6,3.3c-.4,1-1,1.8-1.7,2.5-.7.7-1.6,1.2-2.5,1.6s-1.9.5-3,.5ZM1361,19.6c.8,0,1.6-.2,2.4-.6.8-.4,1.4-1,1.9-1.8.5-.8.7-1.8.7-3s-.2-2.2-.7-3-1.1-1.4-1.9-1.8c-.8-.4-1.5-.6-2.4-.6s-1.6.2-2.3.6c-.8.4-1.4,1-1.9,1.8s-.7,1.8-.7,3,.2,2.2.7,3c.5.8,1.1,1.4,1.9,1.8.8.4,1.5.6,2.3.6Z"/>
    <path class="st1" d="M1371.1,21.9V6.5h5.3c1.1,0,2,.2,2.8.5.8.3,1.4.8,1.8,1.5.4.7.7,1.5.7,2.4s-.3,2-.9,2.6c-.6.7-1.4,1.1-2.4,1.4l4.3,6.9h-3.3l-3.8-6.5h-1.7v6.5h-2.8ZM1373.9,13h2.5c.7,0,1.2,0,1.5-.3s.6-.4.7-.7c.1-.3.2-.7.2-1.1s0-.7-.2-1.1c-.1-.3-.4-.5-.7-.7s-.9-.3-1.5-.3h-2.5v4.1Z"/>
    <path class="st1" d="M1389.6,22.1c-1.1,0-2-.2-2.9-.5s-1.6-.9-2.1-1.6c-.5-.7-.8-1.6-.8-2.7h3c0,.7.3,1.3.8,1.8.5.5,1.2.7,2,.7s1.3-.2,1.8-.5.7-.8.7-1.4,0-.6-.1-.8c0-.2-.3-.5-.5-.7-.3-.2-.6-.4-1.1-.6-.5-.2-1.1-.4-1.9-.7-1-.3-1.8-.7-2.4-1.2-.6-.4-1.1-.9-1.3-1.5-.3-.5-.4-1.1-.4-1.8,0-1,.2-1.8.7-2.4.5-.6,1.1-1.1,1.9-1.5.8-.3,1.6-.5,2.6-.5s1.8.2,2.6.5c.8.3,1.4.8,1.9,1.5.5.7.7,1.5.7,2.4h-3c0-.6-.2-1-.6-1.4-.4-.4-1-.6-1.7-.6s-1.1.2-1.5.5c-.4.3-.6.8-.6,1.4s.2.8.5,1.1c.3.3.8.6,1.3.8s1.2.5,1.9.7c.4.1.8.3,1.3.5.5.2.9.5,1.4.8s.8.8,1.1,1.3.4,1.2.4,1.9-.2,1.7-.7,2.4-1.1,1.2-1.9,1.6c-.8.4-1.7.5-2.8.5Z"/>
  </g>
</svg>